<svg width="13" height="15" viewBox="0 0 13 15" fill="none" xmlns="http://www.w3.org/2000/svg">
<path d="M0 12.7773C0 13.502 0.587891 14.0898 1.3125 14.0898H10.9375C11.6621 14.0898 12.25 13.502 12.25 12.7773V5.33984H0V12.7773ZM8.75 7.41797C8.75 7.2375 8.89766 7.08984 9.07812 7.08984H10.1719C10.3523 7.08984 10.5 7.2375 10.5 7.41797V8.51172C10.5 8.69219 10.3523 8.83984 10.1719 8.83984H9.07812C8.89766 8.83984 8.75 8.69219 8.75 8.51172V7.41797ZM8.75 10.918C8.75 10.7375 8.89766 10.5898 9.07812 10.5898H10.1719C10.3523 10.5898 10.5 10.7375 10.5 10.918V12.0117C10.5 12.1922 10.3523 12.3398 10.1719 12.3398H9.07812C8.89766 12.3398 8.75 12.1922 8.75 12.0117V10.918ZM5.25 7.41797C5.25 7.2375 5.39766 7.08984 5.57812 7.08984H6.67188C6.85234 7.08984 7 7.2375 7 7.41797V8.51172C7 8.69219 6.85234 8.83984 6.67188 8.83984H5.57812C5.39766 8.83984 5.25 8.69219 5.25 8.51172V7.41797ZM5.25 10.918C5.25 10.7375 5.39766 10.5898 5.57812 10.5898H6.67188C6.85234 10.5898 7 10.7375 7 10.918V12.0117C7 12.1922 6.85234 12.3398 6.67188 12.3398H5.57812C5.39766 12.3398 5.25 12.1922 5.25 12.0117V10.918ZM1.75 7.41797C1.75 7.2375 1.89766 7.08984 2.07812 7.08984H3.17188C3.35234 7.08984 3.5 7.2375 3.5 7.41797V8.51172C3.5 8.69219 3.35234 8.83984 3.17188 8.83984H2.07812C1.89766 8.83984 1.75 8.69219 1.75 8.51172V7.41797ZM1.75 10.918C1.75 10.7375 1.89766 10.5898 2.07812 10.5898H3.17188C3.35234 10.5898 3.5 10.7375 3.5 10.918V12.0117C3.5 12.1922 3.35234 12.3398 3.17188 12.3398H2.07812C1.89766 12.3398 1.75 12.1922 1.75 12.0117V10.918ZM10.9375 1.83984H9.625V0.527344C9.625 0.286719 9.42813 0.0898438 9.1875 0.0898438H8.3125C8.07187 0.0898438 7.875 0.286719 7.875 0.527344V1.83984H4.375V0.527344C4.375 0.286719 4.17812 0.0898438 3.9375 0.0898438H3.0625C2.82188 0.0898438 2.625 0.286719 2.625 0.527344V1.83984H1.3125C0.587891 1.83984 0 2.42773 0 3.15234V4.46484H12.25V3.15234C12.25 2.42773 11.6621 1.83984 10.9375 1.83984Z" fill="#3F4254"/>
</svg>
