<svg width="18" height="18" viewBox="0 0 18 18" fill="none" xmlns="http://www.w3.org/2000/svg">
<path d="M5.98142 16.0649L14.5 7.54632L10.4538 3.50015L1.93525 12.0187C1.81798 12.1362 1.73467 12.2831 1.69417 12.4441L0.75 17.2502L5.55517 16.306C5.7165 16.2657 5.86408 16.1822 5.98142 16.0649ZM17.25 4.79632C17.5937 4.45252 17.7868 3.98629 17.7868 3.50015C17.7868 3.01402 17.5937 2.54779 17.25 2.20399L15.7962 0.750154C15.4524 0.406457 14.9861 0.213379 14.5 0.213379C14.0139 0.213379 13.5476 0.406457 13.2038 0.750154L11.75 2.20399L15.7962 6.25016L17.25 4.79632Z" fill="white"/>
</svg>
