<svg width="28" height="32" viewBox="0 0 28 32" fill="none" xmlns="http://www.w3.org/2000/svg">
<path d="M0.0442151 22.0733L5.02087 17.1695C3.58122 15.057 2.92993 12.5056 3.18085 9.96151C3.43178 7.41741 4.56896 5.04244 6.39357 3.25185L6.39361 3.24365L6.39425 3.24239L6.39488 3.24113C8.47412 1.18972 11.2826 0.0474313 14.2034 0.0651393C17.0179 0.0781795 19.8325 1.16405 21.9758 3.31332L21.984 3.31336L21.9852 3.31463L23.4225 4.75887L21.9719 6.18848L15.5904 12.4753L9.21077 18.7628L7.7596 20.1943L7.75772 20.1924L2.92053 24.9599L0.0442151 22.0733ZM12.1729 19.2063L18.5538 12.9182L20.0056 11.4886L20.0068 11.4892L24.8453 6.7218L27.7203 9.60777L22.7468 14.509C23.9891 16.3338 24.6481 18.4929 24.6366 20.7004C24.6236 23.5048 23.534 26.3068 21.3709 28.4387L21.3697 28.4399L21.3615 28.4399C19.2841 30.4898 16.4784 31.632 13.5599 31.6159C10.6418 31.6049 7.84724 30.4367 5.78939 28.3677L5.78118 28.3677L5.77993 28.3664L4.34271 26.9234L5.79323 25.4938L12.1729 19.2063ZM16.1124 21.044L15.0486 22.0929L10.3344 26.7379C11.3344 27.2673 12.4479 27.5462 13.5794 27.5506C15.3583 27.5588 17.1385 26.8931 18.4984 25.5571L18.494 25.5533L18.4952 25.552C19.1424 24.9162 19.6571 24.1584 20.0096 23.3223C20.362 22.4863 20.5452 21.5887 20.5486 20.6815C20.5537 19.5708 20.2913 18.4589 19.7621 17.4505L16.1136 21.0465L16.1124 21.044ZM8.00053 14.2331L11.6509 10.6352L12.7147 9.58873L17.4295 4.94378C16.4296 4.41433 15.316 4.13545 14.1845 4.13107C12.3464 4.1193 10.5788 4.83768 9.26994 6.12837L9.26867 6.12962L9.26427 6.12645C8.61793 6.76326 8.10406 7.52172 7.75228 8.35811C7.40051 9.19449 7.21779 10.0922 7.21468 10.9996C7.20953 12.1109 7.47258 13.224 8.00116 14.2324L8.00053 14.2331Z" fill="#FCBB19"/>
</svg>
