<svg width="24" height="24" viewBox="0 0 24 24" fill="none" xmlns="http://www.w3.org/2000/svg">
<path d="M16.2948 17.3438C16.058 17.0729 15.9396 16.7658 15.9396 16.4225C15.9396 16.0792 16.058 15.7925 16.2948 15.5625L18.6844 13.25H9.41667C9.0507 13.25 8.74371 13.13 8.49571 12.89C8.24771 12.65 8.12414 12.3533 8.125 12C8.125 11.6458 8.249 11.3488 8.497 11.1088C8.745 10.8688 9.05156 10.7492 9.41667 10.75H18.6844L16.2948 8.4375C16.0365 8.1875 15.9073 7.89042 15.9073 7.54625C15.9073 7.20209 16.0365 6.90542 16.2948 6.65625C16.5316 6.40625 16.8278 6.28125 17.1835 6.28125C17.5391 6.28125 17.8349 6.39583 18.0708 6.625L22.7208 11.125C22.85 11.25 22.9417 11.3854 22.996 11.5313C23.0502 11.6771 23.0769 11.8333 23.076 12C23.076 12.1667 23.0493 12.3229 22.996 12.4688C22.9426 12.6146 22.8509 12.75 22.7208 12.875L18.0708 17.375C17.791 17.6458 17.484 17.7658 17.1499 17.735C16.8158 17.7042 16.5307 17.5737 16.2948 17.3438ZM2.95834 23.25C2.24792 23.25 1.63954 23.005 1.13321 22.515C0.626877 22.025 0.374141 21.4367 0.375002 20.75V3.25C0.375002 2.5625 0.628169 1.97375 1.1345 1.48375C1.64084 0.993752 2.24878 0.749169 2.95834 0.750002H10.7083C11.0743 0.750002 11.3813 0.870002 11.6293 1.11C11.8773 1.35 12.0009 1.64667 12 2C12 2.35417 11.876 2.65125 11.628 2.89125C11.38 3.13125 11.0734 3.25084 10.7083 3.25H2.95834V20.75H10.7083C11.0743 20.75 11.3813 20.87 11.6293 21.11C11.8773 21.35 12.0009 21.6467 12 22C12 22.3542 11.876 22.6512 11.628 22.8912C11.38 23.1313 11.0734 23.2508 10.7083 23.25H2.95834Z" fill="white"/>
</svg>
