<svg width="100" height="21" viewBox="0 0 100 21" fill="none" xmlns="http://www.w3.org/2000/svg">
<path d="M11.032 6.68089C10.9682 5.97304 10.6717 5.42431 10.14 5.03086C9.60833 4.63805 8.88968 4.43751 7.9847 4.43432C7.05449 4.43104 6.34161 4.61828 5.84041 4.99539C5.33918 5.37631 5.08946 5.85331 5.08488 6.43398C5.0672 7.0768 5.33897 7.56326 5.89951 7.89906C6.46134 8.23041 7.12972 8.48789 7.90588 8.67214L9.5154 9.06494C10.5548 9.30342 11.4779 9.64367 12.281 10.0914C13.0879 10.5391 13.721 11.1138 14.1802 11.8154C14.6402 12.5132 14.8636 13.3663 14.8557 14.3671C14.8384 16.0101 14.2106 17.3172 12.9814 18.2851C11.7477 19.2568 10.0361 19.7369 7.8433 19.7292C5.66755 19.7215 3.93088 19.2166 2.64209 18.2194C1.35017 17.2185 0.690711 15.7502 0.66063 13.8062L4.33103 13.8191C4.3895 14.7211 4.73861 15.3976 5.38082 15.8537C6.02304 16.3084 6.83984 16.5379 7.82744 16.5413C8.78981 16.5447 9.5608 16.3456 10.1405 15.9358C10.7195 15.5304 11.0163 14.9958 11.0252 14.3416C11.0262 13.7361 10.7625 13.2656 10.2379 12.9381C9.71389 12.6063 8.96751 12.3244 7.99437 12.0862L6.04321 11.5893C4.53251 11.2216 3.33945 10.6405 2.4697 9.84672C1.59933 9.05352 1.17186 7.99725 1.19049 6.67537C1.19086 5.58824 1.49038 4.63417 2.08521 3.82076C2.67562 3.00734 3.49164 2.37621 4.52317 1.92672C5.55597 1.47723 6.72572 1.25543 8.03495 1.26005C9.36752 1.26474 10.5306 1.49478 11.5221 1.95521C12.5143 2.41565 13.2869 3.05301 13.8355 3.86601C14.3847 4.68345 14.661 5.62369 14.6734 6.69436L11.032 6.68089ZM22.1653 19.7873C20.783 19.7824 19.5958 19.4946 18.6006 18.9269C17.6093 18.3592 16.8462 17.5575 16.3158 16.5135C15.7848 15.474 15.5271 14.2457 15.5383 12.8255C15.5492 11.4375 15.8262 10.2194 16.3737 9.17544C16.9205 8.13149 17.6844 7.31867 18.6684 6.73701C19.6518 6.15661 20.8018 5.8681 22.1231 5.87276C23.3118 5.87695 24.3794 6.1314 25.3303 6.63738C26.2849 7.14338 27.0357 7.90378 27.5877 8.92242C28.1429 9.93725 28.4129 11.2113 28.4008 12.7394L28.3928 13.7644L19.2218 13.732L19.2218 13.7403C19.2138 14.7449 19.4832 15.5404 20.026 16.1192C20.5726 16.7018 21.3114 16.9932 22.2492 16.9965C22.8741 16.9987 23.4144 16.8686 23.873 16.6068C24.3323 16.3482 24.6558 15.9584 24.8452 15.4444L28.2994 15.6832C28.0266 16.9343 27.3521 17.9328 26.2766 18.6779C25.2005 19.4236 23.8315 19.7932 22.1653 19.7873ZM19.2401 11.4131L24.8933 11.4331C24.8958 10.6347 24.6456 9.97062 24.1395 9.45033C23.6334 8.92497 22.9771 8.66309 22.1623 8.66022C21.3361 8.6573 20.6503 8.92715 20.1151 9.46026C19.5886 9.97723 19.2758 10.6752 19.2401 11.4131ZM38.2047 13.8402L38.2658 6.10231L42.0017 6.11548L41.8955 19.5935L38.3077 19.5809L38.327 17.135L38.187 17.1345C37.8854 17.9097 37.3527 18.5726 36.6622 19.0318C35.9508 19.5072 35.0931 19.7472 34.0809 19.7436C32.7276 19.7389 31.6325 19.2819 30.7996 18.3727C29.968 17.4679 29.5584 16.227 29.562 14.6538L29.6296 6.07185L33.3656 6.08503L33.3032 14C33.3013 14.7945 33.5102 15.4255 33.9265 15.8883C34.3467 16.3512 34.908 16.5873 35.6156 16.5898C36.2866 16.5922 36.8851 16.3595 37.411 15.8917C37.9413 15.424 38.2021 14.742 38.2047 13.8402ZM43.6853 19.5998L43.827 1.6287L51.0145 1.65405C52.9979 1.66104 54.4835 2.0991 55.4724 2.96696C56.4615 3.83165 56.951 4.93638 56.9403 6.28304C56.932 7.34158 56.6206 8.19724 56.0025 8.84556C55.3799 9.49831 54.6034 9.92395 53.6677 10.1307L53.6664 10.3078C54.3491 10.3387 54.989 10.5346 55.5871 10.8952C56.181 11.2515 56.6626 11.7513 57.0316 12.3911C57.4011 13.0308 57.5843 13.793 57.5773 14.6821C57.5698 15.6379 57.3285 16.4855 56.8496 17.2334C56.3745 17.9806 55.6749 18.5677 54.7539 18.9928C53.8329 19.4211 52.6998 19.6322 51.3584 19.6275L43.6853 19.5998ZM47.5069 16.5087L50.6009 16.5196C51.6629 16.5233 52.4377 16.3198 52.9265 15.9141C53.411 15.5033 53.6542 14.9647 53.6595 14.2901C53.6654 13.5489 53.4066 12.9381 52.8799 12.4628C52.3571 11.9875 51.6387 11.7501 50.7249 11.7469L47.5445 11.7357L47.5069 16.5087ZM47.5648 9.16168L50.3794 9.17161C51.157 9.17435 51.8044 8.97482 52.3222 8.56921C52.8394 8.1674 53.0992 7.60857 53.1048 6.8997C53.1099 6.25303 52.8832 5.72929 52.4298 5.3285C51.9719 4.92707 51.3239 4.72741 50.4845 4.72445L47.5999 4.71428L47.5648 9.16168ZM64.7526 19.9375C63.3904 19.9327 62.2166 19.6366 61.2291 19.0524C60.2467 18.4683 59.4876 17.6501 58.9566 16.6062C58.4262 15.5584 58.1684 14.3466 58.1793 12.9631C58.1903 11.5714 58.4672 10.3571 59.0141 9.31312C59.5615 8.26917 60.3335 7.46083 61.3251 6.88363C62.3217 6.30201 63.5001 6.01804 64.8623 6.02285C66.2239 6.02765 67.3985 6.31992 68.3859 6.90853C69.3682 7.49269 70.1275 8.30643 70.6584 9.35419C71.185 10.4019 71.4466 11.6182 71.4356 13.0099C71.4247 14.3934 71.144 15.6033 70.6009 16.6472C70.0535 17.6874 69.2815 18.5001 68.2899 19.0773C67.2933 19.6545 66.1142 19.9423 64.7526 19.9375ZM64.7919 17.0431C65.7177 17.0463 66.4201 16.6617 66.8992 15.8935C67.3827 15.121 67.6293 14.1496 67.6386 12.9717C67.6479 11.7939 67.4166 10.8215 66.9453 10.0411C66.4784 9.26519 65.7821 8.87561 64.8563 8.87234C63.9185 8.86903 63.2034 9.25364 62.7162 10.0262C62.2326 10.8032 61.9866 11.7739 61.9773 12.9518C61.968 14.1296 62.1987 15.1027 62.67 15.8786C63.1451 16.6501 63.8541 17.0397 64.7919 17.0431ZM76.3565 11.9236L76.295 19.7148L72.5597 19.7016L72.6659 6.22362L76.2247 6.23618L76.2059 8.61599L76.3668 8.61656C76.6609 7.84948 77.1926 7.19724 77.883 6.75671C78.5861 6.29781 79.4348 6.07424 80.435 6.07777C81.8382 6.08272 82.9579 6.53535 83.7983 7.44458C84.6388 8.34936 85.0529 9.5909 85.0405 11.1635L84.9728 19.7454L81.2406 19.7323L81.303 11.8173C81.3139 10.9942 81.109 10.3468 80.6844 9.87948C80.2605 9.4128 79.6784 9.18037 78.9292 9.17773C78.1762 9.17507 77.5613 9.41597 77.0889 9.89599C76.6115 10.3766 76.3678 11.0504 76.3565 11.9236ZM92.7877 20.0364C91.4053 20.0315 90.2181 19.7436 89.2229 19.1759C88.2316 18.6082 87.4685 17.8065 86.9381 16.7626C86.4071 15.7231 86.1494 14.4948 86.1606 13.0745C86.1715 11.6866 86.4485 10.4684 86.996 9.42449C87.5428 8.38054 88.3067 7.56773 89.2907 6.98606C90.2741 6.40567 91.4241 6.11716 92.7454 6.12182C93.9341 6.12601 95.0018 6.38045 95.9526 6.88644C96.9072 7.39244 97.658 8.15284 98.21 9.17147C98.7652 10.1863 99.0352 11.4603 99.0231 12.9885L99.0151 14.0134L89.8441 13.9811L89.8441 13.9893C89.8361 14.9939 90.1055 15.7894 90.6483 16.3682C91.1949 16.9509 91.9337 17.2422 92.8715 17.2455C93.4964 17.2477 94.0367 17.1176 94.496 16.8559C94.9546 16.5973 95.2781 16.2075 95.4675 15.6935L98.9217 15.9322C98.6489 17.1834 97.9744 18.1818 96.8983 18.9269C95.8228 19.6726 94.4538 20.0422 92.7877 20.0364ZM89.8624 11.6622L95.5156 11.6821C95.5181 10.8837 95.2679 10.2197 94.7618 9.69939C94.2557 9.17403 93.5994 8.91215 92.7846 8.90927C91.9578 8.90636 91.2726 9.1762 90.7374 9.70931C90.2109 10.2263 89.8981 10.9243 89.8624 11.6622ZM91.3299 4.55118L93.2287 0.567283L96.6727 0.579429L93.9673 4.56048L91.3299 4.55118Z" fill="white"/>
</svg>
